HIERARCHY
ROOT Hips
{
	OFFSET 0.000000 0.000000 0.000000
	CHANNELS 6 Xposition Yposition Zposition Zrotation Yrotation Xrotation 
	JOINT LHipJoint
	{
		OFFSET 0.000000 0.000000 0.000000
		CHANNELS 3 Zrotation Yrotation Xrotation
		JOINT LeftUpLeg
		{
			OFFSET 1.363060 -1.794630 0.839290
			CHANNELS 3 Zrotation Yrotation Xrotation
			JOINT LeftLeg
			{
				OFFSET 2.448110 -6.726130 0.000000
				CHANNELS 3 Zrotation Yrotation Xrotation
				JOINT LeftFoot
				{
					OFFSET 2.562200 -7.039590 0.000000
					CHANNELS 3 Zrotation Yrotation Xrotation
					JOINT LeftToeBase
					{
						OFFSET 0.157640 -0.433110 2.322550
						CHANNELS 3 Zrotation Yrotation Xrotation
						End Site
						{
							OFFSET 0.000000 0.000000 0.000000
						}
					}
				}
			}
		}
	}
	JOINT RHipJoint
	{
		OFFSET 0.000000 0.000000 0.000000
		CHANNELS 3 Zrotation Yrotation Xrotation
		JOINT RightUpLeg
		{
			OFFSET -1.305520 -1.794630 0.839290
			CHANNELS 3 Zrotation Yrotation Xrotation
			JOINT RightLeg
			{
				OFFSET -2.542530 -6.985550 0.000000
				CHANNELS 3 Zrotation Yrotation Xrotation
				JOINT RightFoot
				{
					OFFSET -2.568260 -7.056230 0.000000
					CHANNELS 3 Zrotation Yrotation Xrotation
					JOINT RightToeBase
					{
						OFFSET -0.164730 -0.452590 2.363150
						CHANNELS 3 Zrotation Yrotation Xrotation
						End Site
						{
							OFFSET 0.000000 0.000000 0.000000
						}
					}
				}
			}
		}
	}
	JOINT LowerBack
	{
		OFFSET 0.000000 0.000000 0.000000
		CHANNELS 3 Zrotation Yrotation Xrotation
		JOINT Spine
		{
			OFFSET 0.028270 2.035590 -0.193380
			CHANNELS 3 Zrotation Yrotation Xrotation
			JOINT Spine1
			{
				OFFSET 0.056720 2.048850 -0.042750
				CHANNELS 3 Zrotation Yrotation Xrotation
				JOINT Neck
				{
					OFFSET 0.000000 0.000000 0.000000
					CHANNELS 3 Zrotation Yrotation Xrotation
					JOINT Neck1
					{
						OFFSET -0.054170 1.746240 0.172020
						CHANNELS 3 Zrotation Yrotation Xrotation
						JOINT Head
						{
							OFFSET 0.104070 1.761360 -0.123970
							CHANNELS 3 Zrotation Yrotation Xrotation
							End Site
							{
								OFFSET 0.000000 0.000000 0.000000
							}
						}
					}
				}
				JOINT LeftShoulder
				{
					OFFSET 0.000000 0.000000 0.000000
					CHANNELS 3 Zrotation Yrotation Xrotation
					JOINT LeftArm
					{
						OFFSET 3.362410 1.200890 -0.311210
						CHANNELS 3 Zrotation Yrotation Xrotation
						JOINT LeftForeArm
						{
							OFFSET 4.983000 -0.000000 -0.000000
							CHANNELS 3 Zrotation Yrotation Xrotation
							JOINT LeftHand
							{
								OFFSET 3.483560 -0.000000 -0.000000
								CHANNELS 3 Zrotation Yrotation Xrotation
								JOINT LeftFingerBase
								{
									OFFSET 0.000000 0.000000 0.000000
									CHANNELS 3 Zrotation Yrotation Xrotation
									JOINT LeftHandIndex1
									{
										OFFSET 0.715260 -0.000000 -0.000000
										CHANNELS 3 Zrotation Yrotation Xrotation
										End Site
										{
											OFFSET 0.000000 0.000000 0.000000
										}
									}
								}
								JOINT LThumb
								{
									OFFSET 0.000000 0.000000 0.000000
									CHANNELS 3 Zrotation Yrotation Xrotation
									End Site
									{
										OFFSET 0.000000 0.000000 0.000000
									}
								}
							}
						}
					}
				}
				JOINT RightShoulder
				{
					OFFSET 0.000000 0.000000 0.000000
					CHANNELS 3 Zrotation Yrotation Xrotation
					JOINT RightArm
					{
						OFFSET -3.136600 1.374050 -0.404650
						CHANNELS 3 Zrotation Yrotation Xrotation
						JOINT RightForeArm
						{
							OFFSET -5.241900 -0.000000 -0.000000
							CHANNELS 3 Zrotation Yrotation Xrotation
							JOINT RightHand
							{
								OFFSET -3.444170 -0.000000 -0.000000
								CHANNELS 3 Zrotation Yrotation Xrotation
								JOINT RightFingerBase
								{
									OFFSET 0.000000 0.000000 0.000000
									CHANNELS 3 Zrotation Yrotation Xrotation
									JOINT RightHandIndex1
									{
										OFFSET -0.622530 -0.000000 -0.000000
										CHANNELS 3 Zrotation Yrotation Xrotation
										End Site
										{
											OFFSET 0.000000 0.000000 0.000000
										}
									}
								}
								JOINT RThumb
								{
									OFFSET 0.000000 0.000000 0.000000
									CHANNELS 3 Zrotation Yrotation Xrotation
									End Site
									{
										OFFSET 0.000000 0.000000 0.000000
									}
								}
							}
						}
					}
				}
			}
		}
	}
}
MOTION
Frames: 5
Frame Time: 0.008333
14.103832 18.469505 10.939487 12.800912 -57.360027 11.425796 -7.047525 -1.935193 -4.448517 -2.088346 -9.493383 -36.827563 -1.753195 6.566483 15.106429 -4.050366 16.010931 14.895076 0.795700 -5.693900 -15.898800 2.720825 -2.980102 0.178672 16.640301 20.599127 -14.151718 0.770982 -5.523926 21.848768 0.418673 -3.241411 3.676649 -0.186000 2.777600 -7.660100 -1.734619 2.540993 2.352968 -7.379143 0.541680 -29.544375 4.070649 2.177754 -0.648626 -3.645230 1.047611 -3.249358 6.045179 0.814608 2.684443 1.314200 0.413000 0.407900 -10.331483 -4.070977 0.343015 -67.617214 33.421369 37.405585 12.280200 -24.839177 -4.527630 -0.331285 -0.754764 0.174913 8.445896 -8.225612 -1.147700 -7.125000 0.000000 0.000000 -13.105300 22.488400 7.283200 13.832006 5.139186 2.931739 56.120918 -21.820584 53.559780 -52.918185 49.980374 -30.940495 0.186072 1.994250 -12.393369 -16.027076 -30.207150 9.022200 7.125000 0.000000 0.000000 18.529300 -62.231700 -7.908600 
14.003713 18.480049 11.039004 13.109288 -58.068946 11.270923 -7.156562 -1.974535 -4.575522 -1.485030 -10.095695 -36.523317 -1.985442 5.882055 13.269661 -4.006726 16.012832 15.099134 0.796700 -5.697300 -15.908700 2.758228 -2.991071 0.253463 16.340738 20.532132 -13.874575 0.802237 -5.478200 21.724195 0.226187 -2.749449 4.039959 -0.168900 2.647200 -7.298000 -1.837745 2.616908 2.295414 -7.522689 0.578015 -29.578565 4.136751 2.229924 -0.628321 -3.939677 1.155812 -3.232772 6.543223 0.915049 2.453452 1.478600 0.452200 0.355600 -10.314105 -4.066518 0.348380 -67.271924 33.495324 37.556472 12.002793 -24.543281 -4.387994 -0.373616 -0.740374 0.135960 8.721458 -8.254189 -1.196600 -7.125000 0.000000 0.000000 -12.873100 22.439600 7.162200 13.853053 5.097496 2.919536 56.110566 -21.984031 53.284883 -53.681703 50.232506 -31.631782 0.162069 1.978442 -12.667625 -16.216035 -29.912713 9.043300 7.125000 0.000000 0.000000 18.089600 -61.988700 -7.610300 
13.904698 18.487179 11.143843 13.154122 -58.773896 11.286713 -7.248575 -1.994036 -4.688841 -0.655178 -10.918753 -36.051236 -2.168506 5.204561 11.486766 -4.052177 16.082011 14.929969 0.702900 -5.358800 -14.934700 2.787240 -3.002884 0.359697 16.184553 20.220270 -13.655841 0.839922 -5.438815 21.629493 -0.200629 -1.642448 4.272428 -0.099900 2.038100 -5.610900 -1.861915 2.694565 2.236245 -7.440889 0.697320 -29.587550 4.077653 2.297601 -0.590603 -4.428877 1.253102 -3.208703 7.198747 0.986705 2.218603 1.700700 0.474600 0.305100 -10.316099 -4.067061 0.347049 -67.021740 33.564420 37.427966 11.762121 -24.285131 -4.273034 -0.401465 -0.742761 0.339200 8.893468 -8.076102 -1.193400 -7.125000 0.000000 0.000000 -12.745400 22.615100 7.035000 13.868793 5.058973 2.903822 56.125848 -22.130171 53.052568 -54.270316 50.421817 -32.173389 0.144874 1.970779 -12.961959 -16.380847 -29.834617 9.110100 7.125000 0.000000 0.000000 17.850200 -61.949600 -7.489500 
13.802471 18.482961 11.254506 13.021442 -59.412143 11.331792 -7.342750 -1.971764 -4.749483 0.298975 -11.897622 -35.416840 -2.309910 4.550631 9.827510 -4.064288 15.965760 14.456787 0.433400 -4.224600 -11.709500 2.825391 -3.059451 0.489388 16.150482 20.011221 -13.234146 0.874739 -5.395595 21.529705 -0.506652 -0.829589 4.559830 -0.069900 1.705600 -4.692600 -1.802479 2.719076 2.117086 -7.227477 0.796922 -29.436527 3.983600 2.323417 -0.490168 -4.602422 1.342345 -3.062735 7.384674 1.089304 1.790728 1.768800 0.507100 0.193900 -10.370970 -4.060005 0.322494 -66.903658 33.565556 36.890019 11.514651 -23.983348 -4.150761 -0.429869 -0.750338 0.611687 9.087279 -7.784089 -1.171700 -7.125000 0.000000 0.000000 -12.611300 22.909100 6.870100 13.875685 5.044784 2.889618 56.073841 -22.222168 52.890262 -54.864764 50.604897 -32.724655 0.140505 1.963584 -13.042383 -16.728296 -30.066051 9.361300 7.125000 0.000000 0.000000 17.652700 -62.249800 -7.529000 
13.699238 18.482358 11.361052 12.898329 -59.885648 11.410878 -7.443729 -1.930872 -4.811575 1.261164 -13.011994 -34.813083 -2.403389 3.954164 8.298870 -4.225954 16.143124 13.879723 0.456600 -4.334600 -12.019800 2.859118 -3.134798 0.595518 16.127549 20.002303 -12.761827 0.903329 -5.352425 21.415345 -0.562217 -0.672466 4.909730 -0.073200 1.745500 -4.802800 -1.690682 2.706691 2.040479 -7.190714 0.786682 -29.337322 3.949508 2.309099 -0.424245 -4.409164 1.357041 -2.888137 7.287312 1.120252 1.370023 1.730700 0.507000 0.078200 -10.417346 -4.045972 0.315777 -66.592413 33.516491 36.635977 11.272584 -23.702966 -4.042153 -0.440861 -0.734911 0.709804 9.039444 -7.788136 -1.170000 -7.125000 0.000000 0.000000 -12.637300 22.891400 6.890200 13.872785 5.038002 2.871183 56.143257 -22.392437 52.636956 -55.301215 50.738720 -33.129581 0.134461 1.952005 -12.967239 -16.879270 -30.102338 9.448100 7.125000 0.000000 0.000000 17.521000 -62.313100 -7.497100 
